<svg xmlns="http://www.w3.org/2000/svg" width="18" height="18" viewBox="0 0 18 18"><path fill-rule="evenodd" d="M13.5,0.9 L4.5,0.9 C3.505887,0.9 2.7,1.705887 2.7,2.7 L2.7,15.3 C2.7,16.294113 3.5058879,17.1 4.5,17.1 L13.5,17.1 C14.494113,17.1 15.3,16.294113 15.3,15.3 L15.3,2.7 C15.3,1.705887 14.494113,0.9 13.5,0.9 Z M4.5,3.6 L8.5,3.6 L8.5,4.5 L4.5,4.5 L4.5,3.6 Z M4.5,5.95 L8.5,5.95 L8.5,6.85 L4.5,6.85 L4.5,5.95 Z M13.5,13.9 L4.5,13.9 L4.5,13 L13.5,13 L13.5,13.9 Z M13.5,11.55 L4.5,11.55 L4.5,10.65 L13.5,10.65 L13.5,11.55 Z M13.5,9.2 L4.5,9.2 L4.5,8.3 L13.5,8.3 L13.5,9.2 Z M13.5,6.9 L9.5,6.9 L9.5,3.6 L13.5,3.6 L13.5,6.9 Z"/></svg>