<svg xmlns="http://www.w3.org/2000/svg" width="20" height="15" viewBox="0 0 20 15"><path fill="#36C" d="M18.3017391,15 L20,15 L16.0373913,2.5 L13.6791304,2.5 L9.52782609,15 L11.226087,15 L12.3582609,11.625 L17.0747826,11.625 L18.3017391,15 Z M14.7173913,4.21833333 L16.6973913,10.0325 L12.7356522,10.0325 L14.7173913,4.22 L14.7173913,4.21833333 L14.7173913,4.21833333 Z M5.84869565,1.66666667 C5.20695652,1.66666667 4.62173913,1.51083333 4.34,0.9375 L3.86695652,0 L5.75391304,0 L6.6973913,1.66666667 L5.84869565,1.66666667 Z M9.43652174,9.9383333 L8.96347826,11.3425 C7.75972842,10.9895188 6.63856582,10.416782 5.66173913,9.6558333 C4.05478261,10.8741667 2.35913043,11.6241667 0.472173913,12.1875 L0,10.7808333 C1.60173913,10.2183333 3.20608696,9.6558333 4.52869565,8.6241667 C3.324363,7.35611246 2.42286584,5.85176256 1.88695652,4.21583333 L0.0939130435,4.21583333 L0.0939130435,2.5 L11.7913043,2.5 L11.3191304,4.21833333 L9.43217391,4.21833333 C9.1,5.64333333 8.07913043,7.38666667 6.79043478,8.6266667 C7.54869565,9.1883333 8.39565217,9.6575 9.43565217,9.9383333 L9.43652174,9.9383333 Z M7.92695652,4.21833333 L3.49130435,4.21833333 C3.86869565,5.53166667 4.7173913,6.75 5.66173913,7.6875 C6.66,6.61583333 7.40521739,5.59083333 7.92521739,4.21916667 L7.92695652,4.21833333 Z"/></svg>