<?xml version="1.0" encoding="UTF-8"?>
<svg xmlns="http://www.w3.org/2000/svg" width="36" height="30" viewBox="0 0 36 30">
	<title>
		placeholder copy
	</title>
	<g id="Page-1" fill="none" fill-rule="evenodd" stroke="none" stroke-width="1">
		<g id="placeholder-copy" fill-rule="nonzero">
			<rect id="Rectangle" width="36" height="30" x="0" y="0" fill="#F8F9FA"/>
			<path id="Combined-Shape" fill="#54595D" d="M23,7 C24.1045695,7 25,7.8954305 25,9 L25,22 C25,23.1045695 24.1045695,24 23,24 L14,24 C12.8954305,24 12,23.1045695 12,22 L12,9 C12,7.8954305 12.8954305,7 14,7 L23,7 Z M20.5,17.5 L20.0898437,18.5898437 L19,19 L20.0898437,19.4101562 L20.5,20.5 L20.9101562,19.4101562 L22,19 L20.9101562,18.5898437 L20.5,17.5 Z M17.517,12.5 L16.5657087,15.0615986 L14.0357143,16.025641 L16.5657087,16.9896835 L17.5178571,19.5512821 L18.4700056,16.9896835 L21,16.025641 L18.4700056,15.0615986 L17.517,12.5 Z M21,10.5 L20.453125,11.953125 L19,12.5 L20.453125,13.046875 L21,14.5 L21.546875,13.046875 L23,12.5 L21.546875,11.953125 L21,10.5 Z"/>
		</g>
	</g>
</svg>
