<?xml version="1.0" encoding="UTF-8"?>
<svg width="38px" height="38px" viewBox="0 0 38 38" version="1.1" xmlns="http://www.w3.org/2000/svg" xmlns:xlink="http://www.w3.org/1999/xlink">
    <title>placeholder-img</title>
    <g id="Page-1" stroke="none" stroke-width="1" fill="none" fill-rule="evenodd">
        <g id="placeholder-img" fill-rule="nonzero">
            <rect id="Rectangle" fill="#F8F9FA" x="0" y="0" width="38" height="38"></rect>
            <path d="M27,12 C27.5522847,12 28,12.4477153 28,13 L28,25 C28,25.5522847 27.5522847,26 27,26 L11,26 C10.4477153,26 10,25.5522847 10,25 L10,13 C10,12.4477153 10.4477153,12 11,12 L27,12 Z M21.5074568,17.4906662 C21.4909166,17.5036283 21.4757842,17.5182925 21.4623086,17.5344171 L18.0432251,21.6256281 C17.9369773,21.7527622 17.747784,21.7696939 17.6206499,21.6634461 C17.6027971,21.6485263 17.5867406,21.6315803 17.5728041,21.6129499 L15.6271959,19.0120501 C15.5279502,18.8793778 15.3399434,18.8522803 15.2072712,18.9515261 C15.1886407,18.9654626 15.1716947,18.9815191 15.1567749,18.9993719 L11.9114878,22.8826214 C11.8052401,23.0097555 11.8221718,23.1989488 11.9493058,23.3051966 C12.0032682,23.3502938 12.0713588,23.375 12.1416844,23.375 L25.883751,23.375 C26.0494365,23.375 26.183751,23.2406854 26.183751,23.075 C26.183751,23.0079107 26.161263,22.9427575 26.1198805,22.8899516 L21.9286346,17.5417473 C21.8264352,17.4113366 21.6378675,17.3884669 21.5074568,17.4906662 Z" id="Combined-Shape" fill="#72777D"></path>
        </g>
    </g>
</svg>