<?xml version="1.0" encoding="UTF-8"?>
<svg xmlns="http://www.w3.org/2000/svg" width="18" height="18" viewBox="0 0 18 18">
	<title>
		Combined Shape
	</title>
	<g id="Page-1" fill="none" fill-rule="evenodd" stroke="none" stroke-width="1">
		<path id="Combined-Shape" fill="#54595D" d="M16,0 C17.1045695,-2.02906125e-16 18,0.8954305 18,2 L18,16 C18,17.1045695 17.1045695,18 16,18 L2,18 C0.8954305,18 1.3527075e-16,17.1045695 0,16 L0,2 C-1.3527075e-16,0.8954305 0.8954305,2.02906125e-16 2,0 L16,0 Z M14,12 C12.8954305,12 12,12.8954305 12,14 C12,15.1045695 12.8954305,16 14,16 C15.1045695,16 16,15.1045695 16,14 C16,12.8954305 15.1045695,12 14,12 Z M4,12 C2.8954305,12 2,12.8954305 2,14 C2,15.1045695 2.8954305,16 4,16 C5.1045695,16 6,15.1045695 6,14 C6,12.8954305 5.1045695,12 4,12 Z M9,7 C7.8954305,7 7,7.8954305 7,9 C7,10.1045695 7.8954305,11 9,11 C10.1045695,11 11,10.1045695 11,9 C11,7.8954305 10.1045695,7 9,7 Z M14,2 C12.8954305,2 12,2.8954305 12,4 C12,5.1045695 12.8954305,6 14,6 C15.1045695,6 16,5.1045695 16,4 C16,2.8954305 15.1045695,2 14,2 Z M4,2 C2.8954305,2 2,2.8954305 2,4 C2,5.1045695 2.8954305,6 4,6 C5.1045695,6 6,5.1045695 6,4 C6,2.8954305 5.1045695,2 4,2 Z"/>
	</g>
</svg>
