<?xml version="1.0" encoding="UTF-8"?>
<svg xmlns="http://www.w3.org/2000/svg" width="123" height="22" viewBox="0 0 123 22">
	<title>
		wordmark
	</title>
	<g id="wordmark" fill="none" fill-rule="evenodd" stroke="none" stroke-width="1">
		<g id="Group-96" fill="#000" fill-rule="nonzero" transform="translate(0 2)">
			<g id="Group-22">
				<path id="Combined-Shape" d="M18.8934135,0.000712411862 C18.959123,0.000808776752 19.0238218,0.000909730446 19.087319,0.00101412574 L19.4523568,0.00167261915 C19.5102843,0.00178619206 19.5666285,0.00190091217 19.6211986,0.00201563227 L19.9258022,0.0026947753 C19.9725122,0.00280490661 20.0170663,0.00291274351 20.0592736,0.0030171388 L20.3706231,0.00383279876 C20.397032,0.00390621963 20.4205215,0.00397275729 20.4409008,0.00403126455 L20.5351843,0.00431003441 L20.5941696,0.0579990443 L20.5941696,0.5701096 C20.5941696,0.711559492 20.5144876,0.781768197 20.3571933,0.781768197 C19.5852095,0.817905031 19.4268804,0.894308622 19.1443715,1.30007364 C18.9901817,1.52102456 18.6859414,1.99699829 18.370318,2.53182342 L18.370318,2.53182342 L15.6611307,7.5868502 C15.6611307,7.5868502 15.6346086,7.64213844 15.5853631,7.7445942 L18.8960121,14.5055051 L19.0967693,14.5602266 L24.312317,2.21072184 C24.4934124,1.71306602 24.465472,1.35995753 24.232635,1.15242886 C23.9987633,0.951095074 23.8342251,0.830294802 23.2298839,0.805515259 L22.7404089,0.781768197 C22.6803887,0.781768197 22.623473,0.760086097 22.568627,0.718786858 C22.5148157,0.680585063 22.4868753,0.629993496 22.4868753,0.569077119 L22.4868753,0.0549016014 L22.5613831,0.00224507249 L28.4537102,0.00224507249 L28.4537102,0.00224507249 L28.5137304,0.0549016014 L28.5137304,0.569077119 C28.5137304,0.708462049 28.4340485,0.778670754 28.2767542,0.778670754 C27.5047703,0.812742626 26.9325088,0.980004541 26.5620394,1.27839154 C26.1905351,1.5788435 25.9007824,1.99183588 25.6927814,2.53079094 C25.6927814,2.53079094 20.8963402,13.483349 19.2550984,17.1249093 C18.6269561,18.3184573 18.009162,18.2090143 17.4658758,17.0908374 C17.0297774,16.1947266 16.2927278,14.6060915 15.5464225,12.980649 L15.3107797,12.4668926 C14.971903,11.7273324 14.6374639,10.9944374 14.3349129,10.3299145 C14.0317514,10.955538 13.6972263,11.6417064 13.356109,12.3371373 L12.9844796,13.0930198 C12.1992876,14.6861401 11.4253041,16.2299508 10.9526502,17.1042597 C10.2199899,18.3752437 9.61668349,18.2090143 9.13652196,17.1372991 C7.46940939,13.2128389 4.04618879,6.32206103 2.43495709,2.46058224 C2.1369258,1.74920286 1.91236749,1.29284627 1.70022716,1.1121621 C1.48705199,0.933542898 1.04414437,0.826164878 0.37046946,0.790028045 C0.123144876,0.76318354 0,0.703299644 0,0.606246434 L0,0.606246434 L0,0.0683238539 L0.0600201918,0.015667325 C0.122701377,0.0153133315 0.199135254,0.0149997944 0.287545413,0.014723246 L0.586928326,0.0140010994 C0.642221483,0.01389808 0.700064608,0.013803441 0.76023565,0.0137167487 L1.57981689,0.0130301458 C1.65505845,0.0130000925 1.73173972,0.0129762521 1.80963865,0.0129581912 L2.78866229,0.0129911343 C2.87274969,0.0130123739 2.95716655,0.0130376592 3.04169081,0.0130665566 L4.52676426,0.0138831979 C4.60458354,0.0139398368 4.68117792,0.0139974872 4.75632535,0.0140557155 L5.7472589,0.0149183037 C5.80238552,0.0149714749 5.85495493,0.0150230568 5.90474508,0.0150726159 L6.46562342,0.015667325 L6.52564361,0.0683238539 L6.52564361,0.58043441 C6.52564361,0.721884301 6.43561333,0.790028045 6.25865724,0.790028045 L6.25865724,0.790028045 L5.59015649,0.817905031 C5.01686017,0.841652093 4.73021201,1.01304393 4.73021201,1.33001559 C4.73021201,1.47766036 4.79023221,1.71822843 4.92372539,2.04036249 C6.16266776,5.05292831 10.3371731,13.849175 10.6235969,14.4522306 L10.6390964,14.4848555 L10.8015649,14.5271872 L13.6582192,8.84095112 C13.30909,8.07139248 13.0864715,7.57859035 13.0864715,7.57859035 L11.1223624,3.72743637 C11.1223624,3.72743637 10.7425795,2.95720558 10.6132256,2.7011503 C9.75017668,0.995491756 9.76880363,0.904633431 8.89644119,0.788995564 C8.6522211,0.756988654 8.52597173,0.726014225 8.52597173,0.605213953 L8.52597173,0.065226411 L8.59944472,0.0125698821 L9.10633103,0.0120265221 C9.16758457,0.0119721792 9.23029985,0.0119197771 9.29429433,0.0118692465 L10.76361,0.0110594398 C10.8365688,0.0110317138 10.9095291,0.0110053742 10.9823083,0.0109803515 L13.6825341,0.0105049202 L13.6825341,0.0105049202 L13.8170621,0.0549016014 L13.8170621,0.592824181 C13.8170621,0.715689416 13.7291015,0.778670754 13.5500757,0.778670754 L13.1816759,0.831327283 C12.3279404,0.897578145 12.384619,1.22236511 12.8766499,2.22320662 L13.0212771,2.51323877 L13.0212771,2.51323877 L14.905,6.359 L16.9898536,2.21175433 C17.3153424,1.50347239 17.2748414,1.29076295 17.1510462,1.12284392 L17.1233468,1.08738256 C17.0405603,0.98929687 16.7632256,0.830294802 16.1599192,0.80654774 L16.1599192,0.80654774 L15.922943,0.780735716 C15.8629228,0.780735716 15.8070419,0.760086097 15.7521959,0.719819339 C15.6983847,0.681617544 15.6714791,0.632058458 15.6714791,0.569077119 L15.6714791,0.569077119 L15.6714791,0.0569665633 L15.744952,0.00431003441 C15.9908969,0.00258923281 16.2879221,0.00144203174 16.6121691,0.000725031074 Z M114.201868,0.123045345 C114.576477,0.123045345 114.712039,0.392522875 114.926249,0.929412974 L120.441898,15.4791347 C120.819611,16.5271028 121.358758,16.9287379 122.434982,17.0361159 L122.729909,17.061928 C122.865472,17.061928 123,17.141429 123,17.2777165 L123,17.7856971 L122.919283,17.8404186 C122.919283,17.8404186 121.023786,17.7903521 119.939739,17.7859985 L119.797198,17.7856971 C119.495856,17.7856971 119.020833,17.7913006 118.514144,17.7989213 L118.130409,17.8049591 C117.167321,17.8207189 116.217718,17.8404186 116.217718,17.8404186 L116.192882,17.7856971 L116.192882,17.2777165 C116.192882,17.141429 116.246694,17.061928 116.384326,17.061928 L117.137683,17.0072065 C118.159061,16.9277054 118.537809,16.6035064 118.267718,15.8539252 L116.626477,11.3151389 L111.028041,11.3151389 C110.382307,11.3151389 110.220873,11.422517 110.08738,11.7694306 L108.52582,15.6629163 C108.256764,16.3381588 108.606537,16.9297704 109.602044,17.0103039 L110.382307,17.0650254 C110.489929,17.0650254 110.597552,17.1455589 110.597552,17.278749 L110.597552,17.7887946 L110.543741,17.8435161 C110.543741,17.8435161 107.61103,17.7887946 106.965295,17.7887946 C106.264715,17.7887946 104.542756,17.8435161 104.542756,17.8435161 L104.48791,17.7887946 L104.48791,17.278749 C104.48791,17.1455589 104.568627,17.0650254 104.70419,17.0650254 C105.889071,16.9844919 106.559642,16.7687034 107.312998,15.0506551 L113.285008,1.09048 C113.579934,0.392522875 113.796214,0.123045345 114.201868,0.123045345 Z M100.342378,5.43825732 C101.067794,5.43825732 103.141595,5.38456831 103.141595,5.38456831 L103.166431,5.43825732 L103.166431,6.02883643 C103.166431,6.10936995 103.11055,6.16305896 103.004997,6.16305896 L102.43998,6.21778045 C101.604871,6.29728148 101.309944,6.51307 101.309944,7.05099258 L101.313049,15.9902127 C101.313049,16.5807918 101.582105,16.9297704 102.443084,17.0103039 L103.008102,17.0650254 C103.088819,17.0650254 103.169536,17.1176819 103.169536,17.22506 L103.169536,17.7887946 L103.14263,17.8435161 C103.14263,17.8435161 101.097804,17.7887946 100.264765,17.7887946 C99.5103735,17.7887946 97.4127713,17.8435161 97.4127713,17.8435161 L97.3579253,17.7887946 L97.3579253,17.22506 C97.3579253,17.1176819 97.4386421,17.0650254 97.5462645,17.0650254 L98.0854114,17.0103039 C98.9722615,16.9297704 99.2423523,16.5002583 99.2423523,15.9902127 L99.2423523,7.05099258 C99.2423523,6.46247844 98.9184503,6.29831396 98.0854114,6.21984541 L97.5462645,6.16409144 C97.4386421,6.16409144 97.3579253,6.1393119 97.3579253,6.05671342 L97.3579253,5.43825732 L97.3848309,5.38456831 C97.3848309,5.38456831 99.5103735,5.43825732 100.342378,5.43825732 Z M50.7226413,5.42002857 L51.0661891,5.42636517 C51.46296,5.43328424 51.8364342,5.43825732 52.0902827,5.43825732 C52.816734,5.43825732 54.8884654,5.38456831 54.8884654,5.38456831 L54.915371,5.43825732 L54.915371,6.02883643 C54.915371,6.10936995 54.8615598,6.16305896 54.7539374,6.16305896 L54.1889197,6.21778045 C53.354846,6.29728148 53.0588844,6.51307 53.0588844,7.05099258 L53.0588844,15.9902127 C53.0588844,16.5807918 53.3279404,16.9297704 54.1889197,17.0103039 L54.7539374,17.0650254 C54.8346542,17.0650254 54.915371,17.1176819 54.915371,17.22506 L54.915371,17.7887946 L54.8884654,17.8435161 C54.8884654,17.8435161 52.8436396,17.7887946 52.0095659,17.7887946 C51.256209,17.7887946 49.1575719,17.8435161 49.1575719,17.8435161 L49.1037607,17.7887946 L49.1037607,17.22506 C49.1037607,17.1176819 49.1844775,17.0650254 49.2920999,17.0650254 L49.830212,17.0103039 C50.7180969,16.9297704 50.987153,16.5002583 50.987153,15.9902127 L50.987153,7.05099258 C50.987153,6.46247844 50.6642857,6.29831396 49.830212,6.21984541 L49.2920999,6.16409144 C49.1844775,6.16409144 49.1037607,6.1393119 49.1037607,6.05671342 L49.1037607,5.43825732 L49.1306663,5.38456831 C49.1306663,5.38456831 49.918202,5.40446065 50.7226413,5.42002857 Z M29.6448006,5.43825732 C30.3712519,5.43825732 32.4429833,5.38456831 32.4429833,5.38456831 L32.4698889,5.43825732 L32.4698889,6.02883643 C32.4698889,6.10936995 32.4160777,6.16305896 32.3084553,6.16305896 L31.7434377,6.21778045 C30.909364,6.29728148 30.6134023,6.51307 30.6134023,7.05099258 L30.6134023,15.9902127 C30.6134023,16.5807918 30.8824584,16.9297704 31.7434377,17.0103039 L32.3084553,17.0650254 C32.3891721,17.0650254 32.4698889,17.1176819 32.4698889,17.22506 L32.4698889,17.7887946 L32.4429833,17.8435161 C32.4429833,17.8435161 30.3981575,17.7887946 29.5640838,17.7887946 C28.8107269,17.7887946 26.7120899,17.8435161 26.7120899,17.8435161 L26.6582786,17.7887946 L26.6582786,17.22506 C26.6582786,17.1176819 26.7389955,17.0650254 26.8466179,17.0650254 L27.3847299,17.0103039 C28.2726148,16.9297704 28.5416709,16.5002583 28.5416709,15.9902127 L28.5416709,7.05099258 C28.5416709,6.46247844 28.2177688,6.29831396 27.3847299,6.21984541 L26.8466179,6.16409144 C26.7389955,6.16409144 26.6582786,6.1393119 26.6582786,6.05671342 L26.6582786,5.43825732 L26.6851843,5.38456831 C26.6851843,5.38456831 28.8107269,5.43825732 29.6448006,5.43825732 Z M72.1142605,5.43825732 L76.0693841,5.43825732 C76.8765522,5.43825732 78.7878849,5.38456831 78.7878849,5.38456831 L78.8437658,5.43825732 C78.8686017,6.59257104 79.0569409,7.64157169 79.2473498,8.6606304 L78.5767794,8.76800842 C78.2818526,7.77372925 77.7706461,6.35200297 76.0486875,6.35200297 L73.8962393,6.35200297 C73.3850328,6.35200297 73.1159768,6.53991451 73.1159768,6.99523861 L73.1159768,10.8887243 L75.1328622,10.8887243 C75.8872539,10.8887243 76.0745583,10.5665903 76.1832155,10.0297002 L76.3436143,9.46596555 C76.3436143,9.38543203 76.3984604,9.33071054 76.505048,9.33071054 L76.9603735,9.33071054 C77.0162544,9.33071054 77.0162544,9.35858753 77.0162544,9.41124406 C76.9603735,10.0007907 76.8548208,10.7545018 76.8548208,11.3987699 C76.8548208,12.06885 76.9624432,12.6336171 77.0162544,13.2510407 L76.9603735,13.3057622 L76.505048,13.3057622 C76.3715548,13.3057622 76.3146391,13.2510407 76.3146391,13.1705072 L76.1801111,12.5809606 C76.0724886,12.043038 75.8303382,11.7477485 75.127688,11.7477485 L73.1118375,11.7477485 L73.1118375,15.8559902 C73.1118375,16.3639708 73.4046946,16.8740164 73.8920999,16.8740164 L76.4481323,16.8740164 C77.820318,16.8740164 78.5757446,16.0149923 78.8965422,14.6170131 L79.5671126,14.6975466 L79.0279657,17.7836322 L78.9741545,17.8373212 C78.9741545,17.8373212 78.3409412,17.8159051 77.6710116,17.8001248 L77.3357488,17.7928295 C77.0584159,17.7873502 76.7919684,17.7836322 76.5795558,17.7836322 L71.87211,17.7887946 C71.0649419,17.7887946 69.2094902,17.8435161 69.2094902,17.8435161 L69.1815497,17.7887946 L69.1815497,17.1982155 C69.1815497,17.1455589 69.2094902,17.0650254 69.3429833,17.0650254 L69.9638819,17.0103039 C70.7989904,16.9297704 71.0411408,16.3928803 71.0411408,15.8570227 L71.0411408,6.99833605 C71.0411408,6.37884748 70.7182736,6.27250194 69.9638819,6.21984541 L69.3429833,6.16409144 C69.1815497,6.1393119 69.1815497,6.0845904 69.1815497,6.05671342 L69.1815497,5.43825732 L69.2094902,5.38456831 C69.2094902,5.38456831 71.3070924,5.43825732 72.1142605,5.43825732 Z M37.6657749,5.43825732 C38.4201666,5.43825732 40.1141848,5.38456831 40.1141848,5.38456831 L40.1410904,5.43825732 L40.1410904,6.02883643 C40.1410904,6.10936995 40.0872792,6.13621445 39.9796567,6.16305896 L39.6836951,6.21778045 C38.8496214,6.377815 38.5536598,6.51307 38.5536598,7.05099258 L38.5536598,11.1055453 C39.4415447,11.1055453 39.9527511,10.6512537 41.1365977,9.38749699 C42.2128218,8.20427381 43.0468955,7.21515706 43.0468955,6.70201402 C43.0468955,6.4862255 42.8047451,6.24668992 42.266633,6.16409144 C42.1590106,6.1393119 42.1051994,6.11040243 42.1051994,6.02986891 L42.1051994,5.41038034 L42.132105,5.3856008 C42.132105,5.3856008 44.3114589,5.43928981 45.0917214,5.43928981 C45.791267,5.43928981 46.9751136,5.3856008 46.9751136,5.3856008 L47.0558304,5.41038034 L47.0558304,6.02986891 C47.0558304,6.11040243 46.9751136,6.16409144 46.8405856,6.16409144 C45.791267,6.24462495 45.0648157,6.29831396 44.096214,7.39893867 L41.7823322,10.0544797 C41.3249369,10.5397457 41.1635033,10.8329703 41.1635033,11.0487589 C41.1635033,11.2098259 41.2711257,11.3430159 41.4056537,11.504083 L45.4683998,16.3897829 C45.791267,16.7645735 46.4370015,16.926673 46.9751136,17.0330185 L47.1096416,17.0588305 C47.1903584,17.0846425 47.2979808,17.1383316 47.2979808,17.2188651 L47.2979808,17.7825997 L47.217264,17.8094442 C47.217264,17.8094442 46.6847158,17.7994189 46.0985777,17.7916215 L45.7764302,17.7876629 C45.5619604,17.7852694 45.3519196,17.783465 45.1693379,17.782839 L45.0379101,17.7825997 C44.9482248,17.7825997 44.8532779,17.7830769 44.756067,17.7839041 L44.4606395,17.7873084 C43.9175608,17.7950078 43.3966683,17.8094442 43.3966683,17.8094442 L43.3697627,17.7825997 L43.3697627,17.4604656 C43.3697627,17.1104546 43.3428571,16.81723 42.9661787,16.3877179 L39.9796567,12.6821437 C39.5760727,12.1442212 39.145583,12.0120636 38.5536598,12.0120636 L38.5536598,15.9902127 C38.5536598,16.5807918 38.9034326,16.8760814 39.6836951,17.0103039 L39.9796567,17.0650254 C40.0603735,17.0908374 40.1410904,17.1176819 40.1410904,17.22506 L40.1410904,17.7887946 L40.1141848,17.8435161 C40.1141848,17.8435161 38.4191318,17.7887946 37.6119637,17.7887946 C37.3499265,17.7887946 36.9121128,17.7954149 36.452504,17.8040502 L36.1061167,17.8108325 C35.3571826,17.8260341 34.6523473,17.8435161 34.6523473,17.8435161 L34.5985361,17.7887946 L34.5985361,17.22506 C34.5985361,17.1176819 34.6792529,17.0650254 34.7868753,17.0650254 L35.3249874,17.0103039 C36.1321555,16.9297704 36.4819283,16.5002583 36.4819283,15.9902127 L36.4819283,7.05099258 C36.4819283,6.46247844 36.1859667,6.29831396 35.3249874,6.21984541 L34.7868753,6.16409144 C34.6792529,6.16409144 34.5985361,6.1393119 34.5985361,6.05671342 L34.5985361,5.43825732 L34.6254417,5.38456831 C34.6254417,5.38456831 36.8317012,5.43825732 37.6657749,5.43825732 Z M62.7200656,5.3856008 C66.5385916,5.3856008 67.2381373,7.26368366 67.2381373,8.66166288 C67.2381373,10.2733657 66.4578748,12.7957166 62.6393488,12.7957166 C61.9667087,12.7957166 61.4285967,12.7409952 60.943261,12.5272716 L60.943261,16.1223703 C60.943261,16.7119169 61.2661282,16.8482044 62.1281424,16.9813945 L62.6672892,17.061928 C62.7749117,17.08774 62.8566633,17.1166495 62.8566633,17.2219625 L62.8566633,17.7856971 L62.8318274,17.8404186 C62.8318274,17.8404186 60.6783443,17.7856971 59.8442706,17.7856971 C59.0909137,17.7856971 57.0729934,17.8404186 57.0729934,17.8404186 L57.0460878,17.7856971 L57.0460878,17.2219625 C57.0460878,17.1145845 57.099899,17.08774 57.2075215,17.061928 L57.7725391,16.9813945 C58.6066128,16.8740164 58.8756689,16.6324159 58.8756689,16.1223703 L58.8725644,7.10364911 C58.8725644,6.27146946 58.5227915,6.24462495 57.2582282,6.16409144 C57.0967945,6.16409144 57.0698889,6.0845904 57.0698889,6.02986891 L57.0698889,5.4124453 L57.1237002,5.3856008 C57.338945,5.3856008 57.8909284,5.40087234 58.4776061,5.41512577 L58.9194,5.42537043 C59.2851169,5.43332436 59.6348898,5.43928981 59.8949773,5.43928981 C60.6483342,5.43928981 61.7245583,5.3856008 62.7200656,5.3856008 Z M84.7091873,5.43928981 C85.2183241,5.43928981 87.5611812,5.3856008 88.2607269,5.3856008 C92.7539626,5.3856008 94.9612569,8.17742931 94.9612569,11.7477485 C94.9612569,16.4465693 91.6239273,17.8404186 88.639475,17.8404186 C86.4870268,17.8404186 85.5463655,17.7856971 84.7122918,17.7856971 C83.9040888,17.7856971 81.8582282,17.8404186 81.8582282,17.8404186 L81.8323574,17.7856971 L81.8323574,17.2219625 C81.8292529,17.1455589 81.8840989,17.0650254 81.9906865,17.0650254 L82.6095154,17.0103039 C83.4177183,16.9297704 83.6867744,16.6881699 83.6867744,15.8570227 L83.6867744,6.99833605 C83.6867744,6.29831396 83.4963655,6.29831396 82.6095154,6.21984541 L82.0196618,6.16409144 C81.9120394,6.16409144 81.8292529,6.11040243 81.8292529,6.02986891 L81.8292529,5.43928981 L81.8551237,5.3856008 C81.8551237,5.3856008 84.2238516,5.43928981 84.7091873,5.43928981 Z M87.4804644,6.16409144 C86.4311459,6.16409144 85.7585058,6.32515847 85.7585058,6.99833605 L85.7585058,15.8570227 C85.7585058,16.6066039 85.9458102,17.0650254 87.9916709,17.0650254 C90.9502524,17.0650254 92.6204695,15.9664657 92.6204695,12.2051375 C92.6204695,9.4143415 92.0006058,6.16409144 87.4804644,6.16409144 Z M62.558632,6.16512392 C61.2661282,6.16512392 60.943261,6.40672446 60.943261,7.10468159 L60.9442958,11.7756255 C61.4824079,11.991414 62.155048,12.017226 62.69316,12.017226 C64.308531,12.017226 65.085689,11.0487589 65.085689,8.98379694 C65.085689,6.67516951 64.0363705,6.16512392 62.558632,6.16512392 Z M113.584074,3.02328436 L113.530262,3.02328436 L110.839702,9.84178862 C110.73208,10.1122986 110.919384,10.1907672 111.511307,10.1907672 L116.193917,10.1907672 L116.193917,10.1897347 L113.584074,3.02328436 Z"/>
			</g>
		</g>
	</g>
</svg>
